<?xml version="1.0" encoding="UTF-8" standalone="no"?><svg xmlns="http://www.w3.org/2000/svg" xmlns:xlink="http://www.w3.org/1999/xlink" contentStyleType="text/css" height="1799.5833px" preserveAspectRatio="none" style="width:319px;height:1799px;background:#FFFFFF;" version="1.1" viewBox="0 0 319 1799" width="319.1667px" zoomAndPan="magnify"><defs><linearGradient id="g9i80a6n3lru00" x1="50%" x2="50%" y1="0%" y2="100%"><stop offset="0%" stop-color="#F5F5F5"/><stop offset="100%" stop-color="#F2F2F2"/></linearGradient></defs><g><rect fill="url(#g9i80a6n3lru00)" height="25.4557" rx="4.1667" ry="4.1667" style="stroke:#C2C2C2;stroke-width:0.4166666666666667;" width="40.8333" x="4.1667" y="886.849"/><text fill="#009FDB" font-family="&quot;Verdana&quot;" font-size="5" lengthAdjust="spacing" textLength="21.6667" x="13.75" y="901.6227">Movie API</text><rect fill="url(#g9i80a6n3lru00)" height="25.4557" rx="4.1667" ry="4.1667" style="stroke:#C2C2C2;stroke-width:0.4166666666666667;" width="54.1667" x="65.8333" y="8.3333"/><text fill="#009FDB" font-family="&quot;Verdana&quot;" font-size="5" lengthAdjust="spacing" textLength="35" x="75.4167" y="23.1071">服務器健康檢查</text><rect fill="url(#g9i80a6n3lru00)" height="25.4557" rx="4.1667" ry="4.1667" style="stroke:#C2C2C2;stroke-width:0.4166666666666667;" width="78.3333" x="140.8333" y="8.3333"/><text fill="#009FDB" font-family="&quot;Verdana&quot;" font-size="5" lengthAdjust="spacing" textLength="59.1667" x="150.4167" y="23.1071">獲取伺服器響應訊息 - 完成</text><path d="M120,21.0612 L124.1667,21.0612 C130.4167,21.0612 130.4167,21.0612 136.6667,21.0612 L140.8333,21.0612 " fill="none" style="stroke:#009FDB;stroke-width:1.25;"/><path d="M45,899.5768 L49.1667,899.5768 C55.4167,899.5768 55.4167,21.0612 61.6667,21.0612 L65.8333,21.0612 " fill="none" style="stroke:#009FDB;stroke-width:1.25;"/><rect fill="url(#g9i80a6n3lru00)" height="25.4557" rx="4.1667" ry="4.1667" style="stroke:#C2C2C2;stroke-width:0.4166666666666667;" width="36.6667" x="65.8333" y="194.1732"/><text fill="#009FDB" font-family="&quot;Verdana&quot;" font-size="5" lengthAdjust="spacing" textLength="17.5" x="75.4167" y="208.9469">用戶API</text><rect fill="url(#g9i80a6n3lru00)" height="25.4557" rx="4.1667" ry="4.1667" style="stroke:#C2C2C2;stroke-width:0.4166666666666667;" width="29.1667" x="123.3333" y="92.806"/><text fill="#009FDB" font-family="&quot;Verdana&quot;" font-size="5" lengthAdjust="spacing" textLength="10" x="132.9167" y="107.5798">登入</text><path d="M102.5,206.901 L106.6667,206.901 C112.9167,206.901 112.9167,105.5339 119.1667,105.5339 L123.3333,105.5339 " fill="none" style="stroke:#009FDB;stroke-width:1.25;"/><rect fill="url(#g9i80a6n3lru00)" height="25.4557" rx="4.1667" ry="4.1667" style="stroke:#C2C2C2;stroke-width:0.4166666666666667;" width="29.1667" x="123.3333" y="126.5951"/><text fill="#009FDB" font-family="&quot;Verdana&quot;" font-size="5" lengthAdjust="spacing" textLength="10" x="132.9167" y="141.3688">註冊</text><path d="M102.5,206.901 L106.6667,206.901 C112.9167,206.901 112.9167,139.3229 119.1667,139.3229 L123.3333,139.3229 " fill="none" style="stroke:#009FDB;stroke-width:1.25;"/><rect fill="url(#g9i80a6n3lru00)" height="25.4557" rx="4.1667" ry="4.1667" style="stroke:#C2C2C2;stroke-width:0.4166666666666667;" width="73.3333" x="123.3333" y="160.3841"/><text fill="#009FDB" font-family="&quot;Verdana&quot;" font-size="5" lengthAdjust="spacing" textLength="54.1667" x="132.9167" y="175.1579">獲取用戶個人資料 - 完成</text><path d="M102.5,206.901 L106.6667,206.901 C112.9167,206.901 112.9167,173.112 119.1667,173.112 L123.3333,173.112 " fill="none" style="stroke:#009FDB;stroke-width:1.25;"/><rect fill="url(#g9i80a6n3lru00)" height="25.4557" rx="4.1667" ry="4.1667" style="stroke:#C2C2C2;stroke-width:0.4166666666666667;" width="73.3333" x="123.3333" y="194.1732"/><text fill="#009FDB" font-family="&quot;Verdana&quot;" font-size="5" lengthAdjust="spacing" textLength="54.1667" x="132.9167" y="208.9469">更新用戶個人資料 - 完成</text><rect fill="url(#g9i80a6n3lru00)" height="25.4557" rx="4.1667" ry="4.1667" style="stroke:#C2C2C2;stroke-width:0.4166666666666667;" width="49.1667" x="217.5" y="42.1224"/><text fill="#009FDB" font-family="&quot;Verdana&quot;" font-size="5" lengthAdjust="spacing" textLength="30" x="227.0833" y="56.8962">更新用戶名稱</text><path d="M196.6667,206.901 L200.8333,206.901 C207.0833,206.901 207.0833,54.8503 213.3333,54.8503 L217.5,54.8503 " fill="none" style="stroke:#009FDB;stroke-width:1.25;"/><rect fill="url(#g9i80a6n3lru00)" height="25.4557" rx="4.1667" ry="4.1667" style="stroke:#C2C2C2;stroke-width:0.4166666666666667;" width="83.3333" x="217.5" y="75.9115"/><text fill="#009FDB" font-family="&quot;Verdana&quot;" font-size="5" lengthAdjust="spacing" textLength="64.1667" x="227.0833" y="90.6852">上傳以及更新用戶頭像 - 完成</text><path d="M196.6667,206.901 L200.8333,206.901 C207.0833,206.901 207.0833,88.6393 213.3333,88.6393 L217.5,88.6393 " fill="none" style="stroke:#009FDB;stroke-width:1.25;"/><rect fill="url(#g9i80a6n3lru00)" height="25.4557" rx="4.1667" ry="4.1667" style="stroke:#C2C2C2;stroke-width:0.4166666666666667;" width="83.3333" x="217.5" y="109.7005"/><text fill="#009FDB" font-family="&quot;Verdana&quot;" font-size="5" lengthAdjust="spacing" textLength="64.1667" x="227.0833" y="124.4743">上傳以及更新用戶背景 - 完成</text><path d="M196.6667,206.901 L200.8333,206.901 C207.0833,206.901 207.0833,122.4284 213.3333,122.4284 L217.5,122.4284 " fill="none" style="stroke:#009FDB;stroke-width:1.25;"/><rect fill="url(#g9i80a6n3lru00)" height="25.4557" rx="4.1667" ry="4.1667" style="stroke:#C2C2C2;stroke-width:0.4166666666666667;" width="96.6667" x="217.5" y="143.4896"/><text fill="#009FDB" font-family="&quot;Verdana&quot;" font-size="5" lengthAdjust="spacing" textLength="77.5" x="227.0833" y="158.2633">更新用戶喜好項目(電影類別) - 完成</text><path d="M196.6667,206.901 L200.8333,206.901 C207.0833,206.901 207.0833,156.2174 213.3333,156.2174 L217.5,156.2174 " fill="none" style="stroke:#009FDB;stroke-width:1.25;"/><rect fill="url(#g9i80a6n3lru00)" height="25.4557" rx="4.1667" ry="4.1667" style="stroke:#C2C2C2;stroke-width:0.4166666666666667;" width="68.3333" x="217.5" y="177.2786"/><text fill="#009FDB" font-family="&quot;Verdana&quot;" font-size="5" lengthAdjust="spacing" textLength="49.1667" x="227.0833" y="192.0524">更新用戶密碼 - 未實現</text><path d="M196.6667,206.901 L200.8333,206.901 C207.0833,206.901 207.0833,190.0065 213.3333,190.0065 L217.5,190.0065 " fill="none" style="stroke:#009FDB;stroke-width:1.25;"/><rect fill="url(#g9i80a6n3lru00)" height="25.4557" rx="4.1667" ry="4.1667" style="stroke:#C2C2C2;stroke-width:0.4166666666666667;" width="74.1667" x="217.5" y="211.0677"/><text fill="#009FDB" font-family="&quot;Verdana&quot;" font-size="5" lengthAdjust="spacing" textLength="55" x="227.0833" y="225.8415">獲取其他用戶之個人資料</text><path d="M196.6667,206.901 L200.8333,206.901 C207.0833,206.901 207.0833,223.7956 213.3333,223.7956 L217.5,223.7956 " fill="none" style="stroke:#009FDB;stroke-width:1.25;"/><rect fill="url(#g9i80a6n3lru00)" height="25.4557" rx="4.1667" ry="4.1667" style="stroke:#C2C2C2;stroke-width:0.4166666666666667;" width="54.1667" x="217.5" y="244.8568"/><text fill="#009FDB" font-family="&quot;Verdana&quot;" font-size="5" lengthAdjust="spacing" textLength="35" x="227.0833" y="259.6305">獲取用戶關注數</text><path d="M196.6667,206.901 L200.8333,206.901 C207.0833,206.901 207.0833,257.5846 213.3333,257.5846 L217.5,257.5846 " fill="none" style="stroke:#009FDB;stroke-width:1.25;"/><rect fill="url(#g9i80a6n3lru00)" height="25.4557" rx="4.1667" ry="4.1667" style="stroke:#C2C2C2;stroke-width:0.4166666666666667;" width="54.1667" x="217.5" y="278.6458"/><text fill="#009FDB" font-family="&quot;Verdana&quot;" font-size="5" lengthAdjust="spacing" textLength="35" x="227.0833" y="293.4196">獲取用戶粉絲數</text><path d="M196.6667,206.901 L200.8333,206.901 C207.0833,206.901 207.0833,291.3737 213.3333,291.3737 L217.5,291.3737 " fill="none" style="stroke:#009FDB;stroke-width:1.25;"/><rect fill="url(#g9i80a6n3lru00)" height="25.4557" rx="4.1667" ry="4.1667" style="stroke:#C2C2C2;stroke-width:0.4166666666666667;" width="59.1667" x="217.5" y="312.4349"/><text fill="#009FDB" font-family="&quot;Verdana&quot;" font-size="5" lengthAdjust="spacing" textLength="40" x="227.0833" y="327.2087">獲取用戶關注列表</text><path d="M196.6667,206.901 L200.8333,206.901 C207.0833,206.901 207.0833,325.1628 213.3333,325.1628 L217.5,325.1628 " fill="none" style="stroke:#009FDB;stroke-width:1.25;"/><rect fill="url(#g9i80a6n3lru00)" height="25.4557" rx="4.1667" ry="4.1667" style="stroke:#C2C2C2;stroke-width:0.4166666666666667;" width="59.1667" x="217.5" y="346.224"/><text fill="#009FDB" font-family="&quot;Verdana&quot;" font-size="5" lengthAdjust="spacing" textLength="40" x="227.0833" y="360.9977">獲取用戶粉絲列表</text><path d="M196.6667,206.901 L200.8333,206.901 C207.0833,206.901 207.0833,358.9518 213.3333,358.9518 L217.5,358.9518 " fill="none" style="stroke:#009FDB;stroke-width:1.25;"/><path d="M102.5,206.901 L106.6667,206.901 C112.9167,206.901 112.9167,206.901 119.1667,206.901 L123.3333,206.901 " fill="none" style="stroke:#009FDB;stroke-width:1.25;"/><path d="M45,899.5768 L49.1667,899.5768 C55.4167,899.5768 55.4167,206.901 61.6667,206.901 L65.8333,206.901 " fill="none" style="stroke:#009FDB;stroke-width:1.25;"/><rect fill="url(#g9i80a6n3lru00)" height="25.4557" rx="4.1667" ry="4.1667" style="stroke:#C2C2C2;stroke-width:0.4166666666666667;" width="36.6667" x="65.8333" y="464.4857"/><text fill="#009FDB" font-family="&quot;Verdana&quot;" font-size="5" lengthAdjust="spacing" textLength="17.5" x="75.4167" y="479.2594">文章API</text><rect fill="url(#g9i80a6n3lru00)" height="25.4557" rx="4.1667" ry="4.1667" style="stroke:#C2C2C2;stroke-width:0.4166666666666667;" width="54.5833" x="123.3333" y="380.013"/><text fill="#009FDB" font-family="&quot;Verdana&quot;" font-size="5" lengthAdjust="spacing" textLength="35.4167" x="132.9167" y="394.7868">新增文章  - 完成</text><path d="M102.5,477.2135 L106.6667,477.2135 C112.9167,477.2135 112.9167,392.7409 119.1667,392.7409 L123.3333,392.7409 " fill="none" style="stroke:#009FDB;stroke-width:1.25;"/><rect fill="url(#g9i80a6n3lru00)" height="25.4557" rx="4.1667" ry="4.1667" style="stroke:#C2C2C2;stroke-width:0.4166666666666667;" width="68.3333" x="123.3333" y="413.8021"/><text fill="#009FDB" font-family="&quot;Verdana&quot;" font-size="5" lengthAdjust="spacing" textLength="49.1667" x="132.9167" y="428.5758">更新文章內容 - 未實現</text><path d="M102.5,477.2135 L106.6667,477.2135 C112.9167,477.2135 112.9167,426.5299 119.1667,426.5299 L123.3333,426.5299 " fill="none" style="stroke:#009FDB;stroke-width:1.25;"/><rect fill="url(#g9i80a6n3lru00)" height="25.4557" rx="4.1667" ry="4.1667" style="stroke:#C2C2C2;stroke-width:0.4166666666666667;" width="58.3333" x="123.3333" y="447.5911"/><text fill="#009FDB" font-family="&quot;Verdana&quot;" font-size="5" lengthAdjust="spacing" textLength="39.1667" x="132.9167" y="462.3649">刪除文章 - 未實現</text><path d="M102.5,477.2135 L106.6667,477.2135 C112.9167,477.2135 112.9167,460.319 119.1667,460.319 L123.3333,460.319 " fill="none" style="stroke:#009FDB;stroke-width:1.25;"/><rect fill="url(#g9i80a6n3lru00)" height="25.4557" rx="4.1667" ry="4.1667" style="stroke:#C2C2C2;stroke-width:0.4166666666666667;" width="74.5833" x="123.3333" y="481.3802"/><text fill="#009FDB" font-family="&quot;Verdana&quot;" font-size="5" lengthAdjust="spacing" textLength="55.4167" x="132.9167" y="496.154">獲取所有文章資訊  - 完成</text><path d="M102.5,477.2135 L106.6667,477.2135 C112.9167,477.2135 112.9167,494.1081 119.1667,494.1081 L123.3333,494.1081 " fill="none" style="stroke:#009FDB;stroke-width:1.25;"/><rect fill="url(#g9i80a6n3lru00)" height="25.4557" rx="4.1667" ry="4.1667" style="stroke:#C2C2C2;stroke-width:0.4166666666666667;" width="84.5833" x="123.3333" y="515.1693"/><text fill="#009FDB" font-family="&quot;Verdana&quot;" font-size="5" lengthAdjust="spacing" textLength="65.4167" x="132.9167" y="529.943">獲取追蹤用戶文章資訊  - 完成</text><path d="M102.5,477.2135 L106.6667,477.2135 C112.9167,477.2135 112.9167,527.8971 119.1667,527.8971 L123.3333,527.8971 " fill="none" style="stroke:#009FDB;stroke-width:1.25;"/><rect fill="url(#g9i80a6n3lru00)" height="25.4557" rx="4.1667" ry="4.1667" style="stroke:#C2C2C2;stroke-width:0.4166666666666667;" width="64.5833" x="123.3333" y="548.9583"/><text fill="#009FDB" font-family="&quot;Verdana&quot;" font-size="5" lengthAdjust="spacing" textLength="45.4167" x="132.9167" y="563.7321">獲取文章資訊  - 完成</text><path d="M102.5,477.2135 L106.6667,477.2135 C112.9167,477.2135 112.9167,561.6862 119.1667,561.6862 L123.3333,561.6862 " fill="none" style="stroke:#009FDB;stroke-width:1.25;"/><path d="M45,899.5768 L49.1667,899.5768 C55.4167,899.5768 55.4167,477.2135 61.6667,477.2135 L65.8333,477.2135 " fill="none" style="stroke:#009FDB;stroke-width:1.25;"/><rect fill="url(#g9i80a6n3lru00)" height="25.4557" rx="4.1667" ry="4.1667" style="stroke:#C2C2C2;stroke-width:0.4166666666666667;" width="46.6667" x="65.8333" y="633.431"/><text fill="#009FDB" font-family="&quot;Verdana&quot;" font-size="5" lengthAdjust="spacing" textLength="27.5" x="75.4167" y="648.2048">文章點讚API</text><rect fill="url(#g9i80a6n3lru00)" height="25.4557" rx="4.1667" ry="4.1667" style="stroke:#C2C2C2;stroke-width:0.4166666666666667;" width="73.3333" x="133.3333" y="582.7474"/><text fill="#009FDB" font-family="&quot;Verdana&quot;" font-size="5" lengthAdjust="spacing" textLength="54.1667" x="142.9167" y="597.5212">獲取文章點讚數目 - 完成</text><path d="M112.5,646.1589 L116.6667,646.1589 C122.9167,646.1589 122.9167,595.4753 129.1667,595.4753 L133.3333,595.4753 " fill="none" style="stroke:#009FDB;stroke-width:1.25;"/><rect fill="url(#g9i80a6n3lru00)" height="25.4557" rx="4.1667" ry="4.1667" style="stroke:#C2C2C2;stroke-width:0.4166666666666667;" width="63.3333" x="133.3333" y="616.5365"/><text fill="#009FDB" font-family="&quot;Verdana&quot;" font-size="5" lengthAdjust="spacing" textLength="44.1667" x="142.9167" y="631.3102">新增文章點讚 - 完成</text><path d="M112.5,646.1589 L116.6667,646.1589 C122.9167,646.1589 122.9167,629.2643 129.1667,629.2643 L133.3333,629.2643 " fill="none" style="stroke:#009FDB;stroke-width:1.25;"/><rect fill="url(#g9i80a6n3lru00)" height="25.4557" rx="4.1667" ry="4.1667" style="stroke:#C2C2C2;stroke-width:0.4166666666666667;" width="83.3333" x="133.3333" y="650.3255"/><text fill="#009FDB" font-family="&quot;Verdana&quot;" font-size="5" lengthAdjust="spacing" textLength="64.1667" x="142.9167" y="665.0993">獲取用戶是否點讚文章 - 完成</text><path d="M112.5,646.1589 L116.6667,646.1589 C122.9167,646.1589 122.9167,663.0534 129.1667,663.0534 L133.3333,663.0534 " fill="none" style="stroke:#009FDB;stroke-width:1.25;"/><rect fill="url(#g9i80a6n3lru00)" height="25.4557" rx="4.1667" ry="4.1667" style="stroke:#C2C2C2;stroke-width:0.4166666666666667;" width="73.3333" x="133.3333" y="684.1146"/><text fill="#009FDB" font-family="&quot;Verdana&quot;" font-size="5" lengthAdjust="spacing" textLength="54.1667" x="142.9167" y="698.8883">移除用戶點讚文章 - 完成</text><path d="M112.5,646.1589 L116.6667,646.1589 C122.9167,646.1589 122.9167,696.8424 129.1667,696.8424 L133.3333,696.8424 " fill="none" style="stroke:#009FDB;stroke-width:1.25;"/><path d="M45,899.5768 L49.1667,899.5768 C55.4167,899.5768 55.4167,646.1589 61.6667,646.1589 L65.8333,646.1589 " fill="none" style="stroke:#009FDB;stroke-width:1.25;"/><rect fill="url(#g9i80a6n3lru00)" height="25.4557" rx="4.1667" ry="4.1667" style="stroke:#C2C2C2;stroke-width:0.4166666666666667;" width="36.6667" x="65.8333" y="785.4818"/><text fill="#009FDB" font-family="&quot;Verdana&quot;" font-size="5" lengthAdjust="spacing" textLength="17.5" x="75.4167" y="800.2555">電影API</text><rect fill="url(#g9i80a6n3lru00)" height="25.4557" rx="4.1667" ry="4.1667" style="stroke:#C2C2C2;stroke-width:0.4166666666666667;" width="73.3333" x="123.3333" y="717.9036"/><text fill="#009FDB" font-family="&quot;Verdana&quot;" font-size="5" lengthAdjust="spacing" textLength="54.1667" x="132.9167" y="732.6774">獲取用戶是否點讚 - 完成</text><path d="M102.5,798.2096 L106.6667,798.2096 C112.9167,798.2096 112.9167,730.6315 119.1667,730.6315 L123.3333,730.6315 " fill="none" style="stroke:#009FDB;stroke-width:1.25;"/><rect fill="url(#g9i80a6n3lru00)" height="25.4557" rx="4.1667" ry="4.1667" style="stroke:#C2C2C2;stroke-width:0.4166666666666667;" width="73.3333" x="123.3333" y="751.6927"/><text fill="#009FDB" font-family="&quot;Verdana&quot;" font-size="5" lengthAdjust="spacing" textLength="54.1667" x="132.9167" y="766.4665">獲取用戶是否收藏 - 完成</text><path d="M102.5,798.2096 L106.6667,798.2096 C112.9167,798.2096 112.9167,764.4206 119.1667,764.4206 L123.3333,764.4206 " fill="none" style="stroke:#009FDB;stroke-width:1.25;"/><rect fill="url(#g9i80a6n3lru00)" height="25.4557" rx="4.1667" ry="4.1667" style="stroke:#C2C2C2;stroke-width:0.4166666666666667;" width="73.3333" x="123.3333" y="785.4818"/><text fill="#009FDB" font-family="&quot;Verdana&quot;" font-size="5" lengthAdjust="spacing" textLength="54.1667" x="132.9167" y="800.2555">獲取電影詳細資料 - 完成</text><path d="M102.5,798.2096 L106.6667,798.2096 C112.9167,798.2096 112.9167,798.2096 119.1667,798.2096 L123.3333,798.2096 " fill="none" style="stroke:#009FDB;stroke-width:1.25;"/><rect fill="url(#g9i80a6n3lru00)" height="25.4557" rx="4.1667" ry="4.1667" style="stroke:#C2C2C2;stroke-width:0.4166666666666667;" width="73.3333" x="123.3333" y="819.2708"/><text fill="#009FDB" font-family="&quot;Verdana&quot;" font-size="5" lengthAdjust="spacing" textLength="54.1667" x="132.9167" y="834.0446">獲取單一電影類型 - 完成</text><path d="M102.5,798.2096 L106.6667,798.2096 C112.9167,798.2096 112.9167,831.9987 119.1667,831.9987 L123.3333,831.9987 " fill="none" style="stroke:#009FDB;stroke-width:1.25;"/><rect fill="url(#g9i80a6n3lru00)" height="25.4557" rx="4.1667" ry="4.1667" style="stroke:#C2C2C2;stroke-width:0.4166666666666667;" width="78.3333" x="123.3333" y="853.0599"/><text fill="#009FDB" font-family="&quot;Verdana&quot;" font-size="5" lengthAdjust="spacing" textLength="59.1667" x="132.9167" y="867.8337">獲取相同類型的電影 - 完成</text><path d="M102.5,798.2096 L106.6667,798.2096 C112.9167,798.2096 112.9167,865.7878 119.1667,865.7878 L123.3333,865.7878 " fill="none" style="stroke:#009FDB;stroke-width:1.25;"/><path d="M45,899.5768 L49.1667,899.5768 C55.4167,899.5768 55.4167,798.2096 61.6667,798.2096 L65.8333,798.2096 " fill="none" style="stroke:#009FDB;stroke-width:1.25;"/><rect fill="url(#g9i80a6n3lru00)" height="25.4557" rx="4.1667" ry="4.1667" style="stroke:#C2C2C2;stroke-width:0.4166666666666667;" width="56.6667" x="65.8333" y="903.7435"/><text fill="#009FDB" font-family="&quot;Verdana&quot;" font-size="5" lengthAdjust="spacing" textLength="37.5" x="75.4167" y="918.5173">用戶電影類別API</text><rect fill="url(#g9i80a6n3lru00)" height="25.4557" rx="4.1667" ry="4.1667" style="stroke:#C2C2C2;stroke-width:0.4166666666666667;" width="88.3333" x="143.3333" y="886.849"/><text fill="#009FDB" font-family="&quot;Verdana&quot;" font-size="5" lengthAdjust="spacing" textLength="69.1667" x="152.9167" y="901.6227">獲取用戶設定之電影類型 - 完成</text><path d="M122.5,916.4714 L126.6667,916.4714 C132.9167,916.4714 132.9167,899.5768 139.1667,899.5768 L143.3333,899.5768 " fill="none" style="stroke:#009FDB;stroke-width:1.25;"/><rect fill="url(#g9i80a6n3lru00)" height="25.4557" rx="4.1667" ry="4.1667" style="stroke:#C2C2C2;stroke-width:0.4166666666666667;" width="88.3333" x="143.3333" y="920.638"/><text fill="#009FDB" font-family="&quot;Verdana&quot;" font-size="5" lengthAdjust="spacing" textLength="69.1667" x="152.9167" y="935.4118">更新用戶設定之電影類型 - 完成</text><path d="M122.5,916.4714 L126.6667,916.4714 C132.9167,916.4714 132.9167,933.3659 139.1667,933.3659 L143.3333,933.3659 " fill="none" style="stroke:#009FDB;stroke-width:1.25;"/><path d="M45,899.5768 L49.1667,899.5768 C55.4167,899.5768 55.4167,916.4714 61.6667,916.4714 L65.8333,916.4714 " fill="none" style="stroke:#009FDB;stroke-width:1.25;"/><rect fill="url(#g9i80a6n3lru00)" height="25.4557" rx="4.1667" ry="4.1667" style="stroke:#C2C2C2;stroke-width:0.4166666666666667;" width="57.9167" x="65.8333" y="1005.1107"/><text fill="#009FDB" font-family="&quot;Verdana&quot;" font-size="5" lengthAdjust="spacing" textLength="38.75" x="75.4167" y="1019.8844">喜愛/點讚電影API</text><rect fill="url(#g9i80a6n3lru00)" height="25.4557" rx="4.1667" ry="4.1667" style="stroke:#C2C2C2;stroke-width:0.4166666666666667;" width="73.3333" x="144.5833" y="954.4271"/><text fill="#009FDB" font-family="&quot;Verdana&quot;" font-size="5" lengthAdjust="spacing" textLength="54.1667" x="154.1667" y="969.2008">獲取用戶點讚電影 - 完成</text><path d="M123.75,1017.8385 L127.9167,1017.8385 C134.1667,1017.8385 134.1667,967.1549 140.4167,967.1549 L144.5833,967.1549 " fill="none" style="stroke:#009FDB;stroke-width:1.25;"/><rect fill="url(#g9i80a6n3lru00)" height="25.4557" rx="4.1667" ry="4.1667" style="stroke:#C2C2C2;stroke-width:0.4166666666666667;" width="73.3333" x="144.5833" y="988.2161"/><text fill="#009FDB" font-family="&quot;Verdana&quot;" font-size="5" lengthAdjust="spacing" textLength="54.1667" x="154.1667" y="1002.9899">獲取用戶是否點讚 - 完成</text><path d="M123.75,1017.8385 L127.9167,1017.8385 C134.1667,1017.8385 134.1667,1000.944 140.4167,1000.944 L144.5833,1000.944 " fill="none" style="stroke:#009FDB;stroke-width:1.25;"/><rect fill="url(#g9i80a6n3lru00)" height="25.4557" rx="4.1667" ry="4.1667" style="stroke:#C2C2C2;stroke-width:0.4166666666666667;" width="73.3333" x="144.5833" y="1022.0052"/><text fill="#009FDB" font-family="&quot;Verdana&quot;" font-size="5" lengthAdjust="spacing" textLength="54.1667" x="154.1667" y="1036.779">新增用戶點讚電影 - 完成</text><path d="M123.75,1017.8385 L127.9167,1017.8385 C134.1667,1017.8385 134.1667,1034.7331 140.4167,1034.7331 L144.5833,1034.7331 " fill="none" style="stroke:#009FDB;stroke-width:1.25;"/><rect fill="url(#g9i80a6n3lru00)" height="25.4557" rx="4.1667" ry="4.1667" style="stroke:#C2C2C2;stroke-width:0.4166666666666667;" width="73.3333" x="144.5833" y="1055.7943"/><text fill="#009FDB" font-family="&quot;Verdana&quot;" font-size="5" lengthAdjust="spacing" textLength="54.1667" x="154.1667" y="1070.568">移除用戶點讚電影 - 完成</text><path d="M123.75,1017.8385 L127.9167,1017.8385 C134.1667,1017.8385 134.1667,1068.5221 140.4167,1068.5221 L144.5833,1068.5221 " fill="none" style="stroke:#009FDB;stroke-width:1.25;"/><path d="M45,899.5768 L49.1667,899.5768 C55.4167,899.5768 55.4167,1017.8385 61.6667,1017.8385 L65.8333,1017.8385 " fill="none" style="stroke:#009FDB;stroke-width:1.25;"/><rect fill="url(#g9i80a6n3lru00)" height="25.4557" rx="4.1667" ry="4.1667" style="stroke:#C2C2C2;stroke-width:0.4166666666666667;" width="46.6667" x="65.8333" y="1207.8451"/><text fill="#009FDB" font-family="&quot;Verdana&quot;" font-size="5" lengthAdjust="spacing" textLength="27.5" x="75.4167" y="1222.6188">喜好列表API</text><rect fill="url(#g9i80a6n3lru00)" height="25.4557" rx="4.1667" ry="4.1667" style="stroke:#C2C2C2;stroke-width:0.4166666666666667;" width="73.3333" x="133.3333" y="1089.5833"/><text fill="#009FDB" font-family="&quot;Verdana&quot;" font-size="5" lengthAdjust="spacing" textLength="54.1667" x="142.9167" y="1104.3571">新增電影喜好片單 - 完成</text><path d="M112.5,1220.5729 L116.6667,1220.5729 C122.9167,1220.5729 122.9167,1102.3112 129.1667,1102.3112 L133.3333,1102.3112 " fill="none" style="stroke:#009FDB;stroke-width:1.25;"/><rect fill="url(#g9i80a6n3lru00)" height="25.4557" rx="4.1667" ry="4.1667" style="stroke:#C2C2C2;stroke-width:0.4166666666666667;" width="78.3333" x="133.3333" y="1123.3724"/><text fill="#009FDB" font-family="&quot;Verdana&quot;" font-size="5" lengthAdjust="spacing" textLength="59.1667" x="142.9167" y="1138.1462">移除電影喜好片單 - 未實現</text><path d="M112.5,1220.5729 L116.6667,1220.5729 C122.9167,1220.5729 122.9167,1136.1003 129.1667,1136.1003 L133.3333,1136.1003 " fill="none" style="stroke:#009FDB;stroke-width:1.25;"/><rect fill="url(#g9i80a6n3lru00)" height="25.4557" rx="4.1667" ry="4.1667" style="stroke:#C2C2C2;stroke-width:0.4166666666666667;" width="103.3333" x="133.3333" y="1157.1615"/><text fill="#009FDB" font-family="&quot;Verdana&quot;" font-size="5" lengthAdjust="spacing" textLength="84.1667" x="142.9167" y="1171.9352">獲取用戶所有喜好電影喜好片單 - 完成</text><path d="M112.5,1220.5729 L116.6667,1220.5729 C122.9167,1220.5729 122.9167,1169.8893 129.1667,1169.8893 L133.3333,1169.8893 " fill="none" style="stroke:#009FDB;stroke-width:1.25;"/><rect fill="url(#g9i80a6n3lru00)" height="25.4557" rx="4.1667" ry="4.1667" style="stroke:#C2C2C2;stroke-width:0.4166666666666667;" width="93.3333" x="133.3333" y="1190.9505"/><text fill="#009FDB" font-family="&quot;Verdana&quot;" font-size="5" lengthAdjust="spacing" textLength="74.1667" x="142.9167" y="1205.7243">獲取單一用戶電影喜好片單 - 完成</text><path d="M112.5,1220.5729 L116.6667,1220.5729 C122.9167,1220.5729 122.9167,1203.6784 129.1667,1203.6784 L133.3333,1203.6784 " fill="none" style="stroke:#009FDB;stroke-width:1.25;"/><rect fill="url(#g9i80a6n3lru00)" height="25.4557" rx="4.1667" ry="4.1667" style="stroke:#C2C2C2;stroke-width:0.4166666666666667;" width="108.3333" x="133.3333" y="1224.7396"/><text fill="#009FDB" font-family="&quot;Verdana&quot;" font-size="5" lengthAdjust="spacing" textLength="89.1667" x="142.9167" y="1239.5133">從用戶電影喜好片單獲取單一電影 - 完成</text><path d="M112.5,1220.5729 L116.6667,1220.5729 C122.9167,1220.5729 122.9167,1237.4674 129.1667,1237.4674 L133.3333,1237.4674 " fill="none" style="stroke:#009FDB;stroke-width:1.25;"/><rect fill="url(#g9i80a6n3lru00)" height="25.4557" rx="4.1667" ry="4.1667" style="stroke:#C2C2C2;stroke-width:0.4166666666666667;" width="98.3333" x="133.3333" y="1258.5286"/><text fill="#009FDB" font-family="&quot;Verdana&quot;" font-size="5" lengthAdjust="spacing" textLength="79.1667" x="142.9167" y="1273.3024">新增電影至用戶電影喜好片單 - 完成</text><path d="M112.5,1220.5729 L116.6667,1220.5729 C122.9167,1220.5729 122.9167,1271.2565 129.1667,1271.2565 L133.3333,1271.2565 " fill="none" style="stroke:#009FDB;stroke-width:1.25;"/><rect fill="url(#g9i80a6n3lru00)" height="25.4557" rx="4.1667" ry="4.1667" style="stroke:#C2C2C2;stroke-width:0.4166666666666667;" width="113.3333" x="133.3333" y="1292.3177"/><text fill="#009FDB" font-family="&quot;Verdana&quot;" font-size="5" lengthAdjust="spacing" textLength="94.1667" x="142.9167" y="1307.0915">從用戶電影喜好片單中移除單一電影 - 完成</text><path d="M112.5,1220.5729 L116.6667,1220.5729 C122.9167,1220.5729 122.9167,1305.0456 129.1667,1305.0456 L133.3333,1305.0456 " fill="none" style="stroke:#009FDB;stroke-width:1.25;"/><rect fill="url(#g9i80a6n3lru00)" height="25.4557" rx="4.1667" ry="4.1667" style="stroke:#C2C2C2;stroke-width:0.4166666666666667;" width="88.3333" x="133.3333" y="1326.1068"/><text fill="#009FDB" font-family="&quot;Verdana&quot;" font-size="5" lengthAdjust="spacing" textLength="69.1667" x="142.9167" y="1340.8805">更新用戶電影喜好片單 - 未實現</text><path d="M112.5,1220.5729 L116.6667,1220.5729 C122.9167,1220.5729 122.9167,1338.8346 129.1667,1338.8346 L133.3333,1338.8346 " fill="none" style="stroke:#009FDB;stroke-width:1.25;"/><path d="M45,899.5768 L49.1667,899.5768 C55.4167,899.5768 55.4167,1220.5729 61.6667,1220.5729 L65.8333,1220.5729 " fill="none" style="stroke:#009FDB;stroke-width:1.25;"/><rect fill="url(#g9i80a6n3lru00)" height="25.4557" rx="4.1667" ry="4.1667" style="stroke:#C2C2C2;stroke-width:0.4166666666666667;" width="36.6667" x="65.8333" y="1444.3685"/><text fill="#009FDB" font-family="&quot;Verdana&quot;" font-size="5" lengthAdjust="spacing" textLength="17.5" x="75.4167" y="1459.1423">留言API</text><rect fill="url(#g9i80a6n3lru00)" height="25.4557" rx="4.1667" ry="4.1667" style="stroke:#C2C2C2;stroke-width:0.4166666666666667;" width="53.3333" x="123.3333" y="1359.8958"/><text fill="#009FDB" font-family="&quot;Verdana&quot;" font-size="5" lengthAdjust="spacing" textLength="34.1667" x="132.9167" y="1374.6696">新增留言 - 完成</text><path d="M102.5,1457.0964 L106.6667,1457.0964 C112.9167,1457.0964 112.9167,1372.6237 119.1667,1372.6237 L123.3333,1372.6237 " fill="none" style="stroke:#009FDB;stroke-width:1.25;"/><rect fill="url(#g9i80a6n3lru00)" height="25.4557" rx="4.1667" ry="4.1667" style="stroke:#C2C2C2;stroke-width:0.4166666666666667;" width="63.3333" x="123.3333" y="1393.6849"/><text fill="#009FDB" font-family="&quot;Verdana&quot;" font-size="5" lengthAdjust="spacing" textLength="44.1667" x="132.9167" y="1408.4587">新增留言回復 - 完成</text><path d="M102.5,1457.0964 L106.6667,1457.0964 C112.9167,1457.0964 112.9167,1406.4128 119.1667,1406.4128 L123.3333,1406.4128 " fill="none" style="stroke:#009FDB;stroke-width:1.25;"/><rect fill="url(#g9i80a6n3lru00)" height="25.4557" rx="4.1667" ry="4.1667" style="stroke:#C2C2C2;stroke-width:0.4166666666666667;" width="58.3333" x="123.3333" y="1427.474"/><text fill="#009FDB" font-family="&quot;Verdana&quot;" font-size="5" lengthAdjust="spacing" textLength="39.1667" x="132.9167" y="1442.2477">刪除留言 - 未實現</text><path d="M102.5,1457.0964 L106.6667,1457.0964 C112.9167,1457.0964 112.9167,1440.2018 119.1667,1440.2018 L123.3333,1440.2018 " fill="none" style="stroke:#009FDB;stroke-width:1.25;"/><rect fill="url(#g9i80a6n3lru00)" height="25.4557" rx="4.1667" ry="4.1667" style="stroke:#C2C2C2;stroke-width:0.4166666666666667;" width="73.3333" x="123.3333" y="1461.263"/><text fill="#009FDB" font-family="&quot;Verdana&quot;" font-size="5" lengthAdjust="spacing" textLength="54.1667" x="132.9167" y="1476.0368">獲取所有文章留言 - 完成</text><path d="M102.5,1457.0964 L106.6667,1457.0964 C112.9167,1457.0964 112.9167,1473.9909 119.1667,1473.9909 L123.3333,1473.9909 " fill="none" style="stroke:#009FDB;stroke-width:1.25;"/><rect fill="url(#g9i80a6n3lru00)" height="25.4557" rx="4.1667" ry="4.1667" style="stroke:#C2C2C2;stroke-width:0.4166666666666667;" width="98.3333" x="123.3333" y="1495.0521"/><text fill="#009FDB" font-family="&quot;Verdana&quot;" font-size="5" lengthAdjust="spacing" textLength="79.1667" x="132.9167" y="1509.8258">獲取單一留言的所有回復內容 - 完成</text><path d="M102.5,1457.0964 L106.6667,1457.0964 C112.9167,1457.0964 112.9167,1507.7799 119.1667,1507.7799 L123.3333,1507.7799 " fill="none" style="stroke:#009FDB;stroke-width:1.25;"/><rect fill="url(#g9i80a6n3lru00)" height="25.4557" rx="4.1667" ry="4.1667" style="stroke:#C2C2C2;stroke-width:0.4166666666666667;" width="68.3333" x="123.3333" y="1528.8411"/><text fill="#009FDB" font-family="&quot;Verdana&quot;" font-size="5" lengthAdjust="spacing" textLength="49.1667" x="132.9167" y="1543.6149">更新留言內容 - 未實現</text><path d="M102.5,1457.0964 L106.6667,1457.0964 C112.9167,1457.0964 112.9167,1541.569 119.1667,1541.569 L123.3333,1541.569 " fill="none" style="stroke:#009FDB;stroke-width:1.25;"/><path d="M45,899.5768 L49.1667,899.5768 C55.4167,899.5768 55.4167,1457.0964 61.6667,1457.0964 L65.8333,1457.0964 " fill="none" style="stroke:#009FDB;stroke-width:1.25;"/><rect fill="url(#g9i80a6n3lru00)" height="25.4557" rx="4.1667" ry="4.1667" style="stroke:#C2C2C2;stroke-width:0.4166666666666667;" width="46.6667" x="65.8333" y="1613.3138"/><text fill="#009FDB" font-family="&quot;Verdana&quot;" font-size="5" lengthAdjust="spacing" textLength="27.5" x="75.4167" y="1628.0876">留言點讚API</text><rect fill="url(#g9i80a6n3lru00)" height="25.4557" rx="4.1667" ry="4.1667" style="stroke:#C2C2C2;stroke-width:0.4166666666666667;" width="68.3333" x="133.3333" y="1562.6302"/><text fill="#009FDB" font-family="&quot;Verdana&quot;" font-size="5" lengthAdjust="spacing" textLength="49.1667" x="142.9167" y="1577.404">獲取留言點讚數 - 完成</text><path d="M112.5,1626.0417 L116.6667,1626.0417 C122.9167,1626.0417 122.9167,1575.3581 129.1667,1575.3581 L133.3333,1575.3581 " fill="none" style="stroke:#009FDB;stroke-width:1.25;"/><rect fill="url(#g9i80a6n3lru00)" height="25.4557" rx="4.1667" ry="4.1667" style="stroke:#C2C2C2;stroke-width:0.4166666666666667;" width="63.3333" x="133.3333" y="1596.4193"/><text fill="#009FDB" font-family="&quot;Verdana&quot;" font-size="5" lengthAdjust="spacing" textLength="44.1667" x="142.9167" y="1611.193">新增留言點讚 - 完成</text><path d="M112.5,1626.0417 L116.6667,1626.0417 C122.9167,1626.0417 122.9167,1609.1471 129.1667,1609.1471 L133.3333,1609.1471 " fill="none" style="stroke:#009FDB;stroke-width:1.25;"/><rect fill="url(#g9i80a6n3lru00)" height="25.4557" rx="4.1667" ry="4.1667" style="stroke:#C2C2C2;stroke-width:0.4166666666666667;" width="73.3333" x="133.3333" y="1630.2083"/><text fill="#009FDB" font-family="&quot;Verdana&quot;" font-size="5" lengthAdjust="spacing" textLength="54.1667" x="142.9167" y="1644.9821">移除用戶點讚留言 - 完成</text><path d="M112.5,1626.0417 L116.6667,1626.0417 C122.9167,1626.0417 122.9167,1642.9362 129.1667,1642.9362 L133.3333,1642.9362 " fill="none" style="stroke:#009FDB;stroke-width:1.25;"/><rect fill="url(#g9i80a6n3lru00)" height="25.4557" rx="4.1667" ry="4.1667" style="stroke:#C2C2C2;stroke-width:0.4166666666666667;" width="83.3333" x="133.3333" y="1663.9974"/><text fill="#009FDB" font-family="&quot;Verdana&quot;" font-size="5" lengthAdjust="spacing" textLength="64.1667" x="142.9167" y="1678.7712">獲取用戶是否點讚留言 - 完成</text><path d="M112.5,1626.0417 L116.6667,1626.0417 C122.9167,1626.0417 122.9167,1676.7253 129.1667,1676.7253 L133.3333,1676.7253 " fill="none" style="stroke:#009FDB;stroke-width:1.25;"/><path d="M45,899.5768 L49.1667,899.5768 C55.4167,899.5768 55.4167,1626.0417 61.6667,1626.0417 L65.8333,1626.0417 " fill="none" style="stroke:#009FDB;stroke-width:1.25;"/><rect fill="url(#g9i80a6n3lru00)" height="25.4557" rx="4.1667" ry="4.1667" style="stroke:#C2C2C2;stroke-width:0.4166666666666667;" width="36.6667" x="65.8333" y="1731.5755"/><text fill="#009FDB" font-family="&quot;Verdana&quot;" font-size="5" lengthAdjust="spacing" textLength="17.5" x="75.4167" y="1746.3493">朋友API</text><rect fill="url(#g9i80a6n3lru00)" height="25.4557" rx="4.1667" ry="4.1667" style="stroke:#C2C2C2;stroke-width:0.4166666666666667;" width="39.1667" x="123.3333" y="1697.7865"/><text fill="#009FDB" font-family="&quot;Verdana&quot;" font-size="5" lengthAdjust="spacing" textLength="20" x="132.9167" y="1712.5602">新增朋友</text><path d="M102.5,1744.3034 L106.6667,1744.3034 C112.9167,1744.3034 112.9167,1710.5143 119.1667,1710.5143 L123.3333,1710.5143 " fill="none" style="stroke:#009FDB;stroke-width:1.25;"/><rect fill="url(#g9i80a6n3lru00)" height="25.4557" rx="4.1667" ry="4.1667" style="stroke:#C2C2C2;stroke-width:0.4166666666666667;" width="39.1667" x="123.3333" y="1731.5755"/><text fill="#009FDB" font-family="&quot;Verdana&quot;" font-size="5" lengthAdjust="spacing" textLength="20" x="132.9167" y="1746.3493">獲取朋友</text><path d="M102.5,1744.3034 L106.6667,1744.3034 C112.9167,1744.3034 112.9167,1744.3034 119.1667,1744.3034 L123.3333,1744.3034 " fill="none" style="stroke:#009FDB;stroke-width:1.25;"/><rect fill="url(#g9i80a6n3lru00)" height="25.4557" rx="4.1667" ry="4.1667" style="stroke:#C2C2C2;stroke-width:0.4166666666666667;" width="39.1667" x="123.3333" y="1765.3646"/><text fill="#009FDB" font-family="&quot;Verdana&quot;" font-size="5" lengthAdjust="spacing" textLength="20" x="132.9167" y="1780.1383">移除朋友</text><path d="M102.5,1744.3034 L106.6667,1744.3034 C112.9167,1744.3034 112.9167,1778.0924 119.1667,1778.0924 L123.3333,1778.0924 " fill="none" style="stroke:#009FDB;stroke-width:1.25;"/><path d="M45,899.5768 L49.1667,899.5768 C55.4167,899.5768 55.4167,1744.3034 61.6667,1744.3034 L65.8333,1744.3034 " fill="none" style="stroke:#009FDB;stroke-width:1.25;"/><!--MD5=[875d6cd78d161eb4ecdccc224d660fd4]
@startmindmap
!theme  bluegray
skinparam backgroundColor white
* Movie API
** 服務器健康檢查
*** 獲取伺服器響應訊息 - 完成
** 用戶API
*** 登入
*** 註冊
*** 獲取用戶個人資料 - 完成
*** 更新用戶個人資料 - 完成
**** 更新用戶名稱
**** 上傳以及更新用戶頭像 - 完成
**** 上傳以及更新用戶背景 - 完成
**** 更新用戶喜好項目(電影類別) - 完成
**** 更新用戶密碼 - 未實現
**** 獲取其他用戶之個人資料
**** 獲取用戶關注數
**** 獲取用戶粉絲數
**** 獲取用戶關注列表
**** 獲取用戶粉絲列表

** 文章API
*** 新增文章  - 完成
*** 更新文章內容 - 未實現
*** 刪除文章 - 未實現
*** 獲取所有文章資訊  - 完成
*** 獲取追蹤用戶文章資訊  - 完成
*** 獲取文章資訊  - 完成

** 文章點讚API
*** 獲取文章點讚數目 - 完成
*** 新增文章點讚 - 完成
*** 獲取用戶是否點讚文章 - 完成
*** 移除用戶點讚文章 - 完成

** 電影API
*** 獲取用戶是否點讚 - 完成
*** 獲取用戶是否收藏 - 完成
*** 獲取電影詳細資料 - 完成
*** 獲取單一電影類型 - 完成
*** 獲取相同類型的電影 - 完成

** 用戶電影類別API
*** 獲取用戶設定之電影類型 - 完成
*** 更新用戶設定之電影類型 - 完成

** 喜愛/點讚電影API
*** 獲取用戶點讚電影 - 完成
*** 獲取用戶是否點讚 - 完成
*** 新增用戶點讚電影 - 完成
*** 移除用戶點讚電影 - 完成

** 喜好列表API
*** 新增電影喜好片單 - 完成
*** 移除電影喜好片單 - 未實現
*** 獲取用戶所有喜好電影喜好片單 - 完成
*** 獲取單一用戶電影喜好片單 - 完成
*** 從用戶電影喜好片單獲取單一電影 - 完成
*** 新增電影至用戶電影喜好片單 - 完成
*** 從用戶電影喜好片單中移除單一電影 - 完成
*** 更新用戶電影喜好片單 - 未實現

** 留言API
*** 新增留言 - 完成
*** 新增留言回復 - 完成
*** 刪除留言 - 未實現
*** 獲取所有文章留言 - 完成
*** 獲取單一留言的所有回復內容 - 完成
*** 更新留言內容 - 未實現

** 留言點讚API
*** 獲取留言點讚數 - 完成
*** 新增留言點讚 - 完成
*** 移除用戶點讚留言 - 完成
*** 獲取用戶是否點讚留言 - 完成

** 朋友API
*** 新增朋友
*** 獲取朋友
*** 移除朋友

@endmindmap

@startmindmap



skinparam backgroundColor transparent
skinparam useBetaStyle false








<style>
  root {
    BackgroundColor transparent
    FontColor #fff
    HyperLinkColor $ORANGE
    LineColor #007faf
    LineThickness 1
    Margin 10
    Padding 6
    Shadowing 0.0
  }
  node {
   Padding 15
   roundcorner 20
   BackgroundColor #009fdb-#007faf
  }
  caption {
    LineThickness 0
  }
  footer {
    LineThickness 0
  }
  groupHeader {
    BackgroundColor #f2f2f2
    FontColor #0568ae
    FontStyle bold
  }
  header {
    LineThickness 0
  }
  referenceHeader {
    BackgroundColor transparent
    FontColor #5a5a5a
    FontStyle bold
  }
  separator {
    BackgroundColor #5a5a5a
    FontColor transparent
    FontStyle bold
  }
  title {
	FontSize 20
	BorderRoundCorner            8
	BorderThickness 	         1
	BackgroundColor  #f5f5f5-#f2f2f2
	FontColor #009fdb
	BorderColor #f2f2f2
  }
  nwdiagDiagram {
	network {
		
	FontColor #fff
	BorderColor #33b2e2
	BackgroundColor #33b2e2-#009fdb
    
		LineColor #009fdb
		LineThickness 1.0
		FontColor #007faf
	}
	server {
		
	FontColor #fff
	BorderColor #33b2e2
	BackgroundColor #33b2e2-#009fdb

	}
	arrow {
		FontColor #007faf
		LineColor #007faf
	}
	group {
		BackGroundColor #d2d2d2
		LineColor $LIGHT_DARK
		LineThickness 2.0
		Margin 5
		Padding 5
	}
  }
  ganttDiagram {
	task {
		
	FontColor #fff
	BorderColor #33b2e2
	BackgroundColor #33b2e2-#009fdb

		LineColor #009fdb
		Margin 10
		Padding 6
	}
	note {
		FontColor #fff
		LineColor #04538b
		BackGroundColor #0568ae
	}
	separator {
		LineColor #f2f2f2
		BackGroundColor #f2f2f2-#c2c2c2
		FontColor #5a5a5a
	}
	milestone {
		FontColor #0568ae
		FontSize 16
		FontStyle italic
		BackGroundColor #f2f2f2
		LineColor #c2c2c2
	}
	timeline {
		BackgroundColor #f2f2f2
		FontColor #5a5a5a
	}
	closed {
		BackgroundColor #bb5d00
		FontColor #fff
	}
  }
</style>
skinparam defaultFontName        "Verdana"
skinparam defaultFontSize        12
skinparam dpi                    100
skinparam shadowing              false
skinparam roundcorner            20
skinparam ParticipantPadding     30
skinparam BoxPadding             40
skinparam Padding                8
skinparam ArrowColor             #959595
skinparam stereotype {
    CBackgroundColor #f5f5f5
    CBorderColor #c2c2c2
    ABackgroundColor #c4ca33
    ABorderColor #919700
    IBackgroundColor #d95555
    IBorderColor #a62222
    EBackgroundColor #ee9033
    EBorderColor #bb5d00
    NBackgroundColor #3786be
    NBorderColor #04538b
}
skinparam title {
	FontColor	                 #009fdb
	BorderColor	                 #c2c2c2
	FontSize	    	         20
	BorderRoundCorner            8
	BorderThickness 	         1
	BackgroundColor              #f5f5f5-#f2f2f2
}


skinparam legend {
	BackgroundColor #f2f2f2
	BorderColor #c2c2c2
	FontColor #5a5a5a
}

skinparam swimlane {
	BorderColor #0568ae
	BorderThickness 2
	TitleBackgroundColor  #f5f5f5-#f2f2f2
	TitleFontColor #009fdb
}


skinparam activity {
	FontColor #fff
	BorderColor #009fdb
	BackgroundColor #33b2e2-#009fdb
	BarColor #b5bd00
	StartColor #0568ae
	EndColor #0568ae
	DiamondBackgroundColor #f5f5f5-#c2c2c2
  	DiamondBorderColor #c2c2c2
	DiamondFontColor #5a5a5a
}


skinparam participant {
	
	FontColor #fff
	BorderColor #33b2e2
	BackgroundColor #33b2e2-#009fdb

	ParticipantBorderThickness 2
}


skinparam actor {
	
	FontColor #fff
	BorderColor #33b2e2
	BackgroundColor #33b2e2-#009fdb

	FontColor #009fdb
}


skinparam arrow {
	Thickness 3
	Color #009fdb
	FontColor #5a5a5a
}


skinparam sequence {
	BorderColor #009fdb
	TitleFontColor #009fdb
	BackgroundColor transparent
	StartColor #009fdb
	EndColor #009fdb
	BoxBackgroundColor #d2d2d2
	BoxBorderColor #959595
	BoxFontColor #5a5a5a
	DelayFontColor #5a5a5a
	LifeLineBorderColor #c2c2c2
	LifeLineBorderThickness 2
	LifeLineBackgroundColor #f5f5f5
	GroupBorderColor #959595
	GroupFontColor #5a5a5a
	GroupHeaderFontColor #0568ae
	DividerBackgroundColor #fff-#d2d2d2
    DividerBorderColor #959595
    DividerBorderThickness 2
    DividerFontColor #5a5a5a
	ReferenceBackgroundColor transparent
	ReferenceBorderColor #959595
	ReferenceFontColor #5a5a5a
	ReferenceHeaderFontColor #0568ae
	StereotypeFontColor #fff
}


skinparam partition {
	BorderColor #009fdb
	FontColor #009fdb
	BackgroundColor transparent
}


skinparam collections {
	
	FontColor #fff
	BorderColor #33b2e2
	BackgroundColor #33b2e2-#009fdb

}


skinparam control {
	
	FontColor #fff
	BorderColor #33b2e2
	BackgroundColor #33b2e2-#009fdb

	FontColor #009fdb
}


skinparam entity {
	
	FontColor #fff
	BorderColor #33b2e2
	BackgroundColor #33b2e2-#009fdb

	FontColor #009fdb
}


skinparam boundary {
	
	FontColor #fff
	BorderColor #33b2e2
	BackgroundColor #33b2e2-#009fdb

	FontColor #009fdb
}


skinparam agent {
	BackgroundColor #orange
	BorderColor #999999
	FontColor #333333
}


skinparam note {
	BorderThickness 1
	BackgroundColor #3786be-#0568ae
	BorderColor #0568ae
	FontColor #fff
}


skinparam artifact {
	BackgroundColor #fff-#d2d2d2
	BorderColor #c2c2c2
	FontColor #5a5a5a
}


skinparam component {
	
	FontColor #fff
	BorderColor #33b2e2
	BackgroundColor #33b2e2-#009fdb

}


skinparam interface {
	BackgroundColor  #d95555
	BorderColor  #cf2a2a
	FontColor #5a5a5a
}


skinparam storage {
	BackgroundColor #ee9033-#ea7400
  	BorderColor #ea7400
	FontColor #fff
}


skinparam node {
	BackgroundColor #f5f5f5-#f2f2f2
	BorderColor #c2c2c2
	FontColor #009fdb
}


skinparam cloud {
	BackgroundColor #F2FCFE-#eeeeee
	BorderColor #F2FCFE
	FontColor #009fdb
}


skinparam database {
	
	FontColor #fff
	BorderColor #33b2e2
	BackgroundColor #33b2e2-#009fdb

	BorderColor #007faf
}


skinparam class {
	
	FontColor #fff
	BorderColor #33b2e2
	BackgroundColor #33b2e2-#009fdb

	HeaderBackgroundColor #33b2e2-#009fdb
	StereotypeFontColor #5a5a5a
	BorderThickness 1
	AttributeFontColor #d2d2d2
	AttributeFontSize 11
}


skinparam object {
	
	FontColor #fff
	BorderColor #33b2e2
	BackgroundColor #33b2e2-#009fdb

	StereotypeFontColor #5a5a5a
	BorderThickness 1
	AttributeFontColor #d2d2d2
	AttributeFontSize 11
}


skinparam usecase {
	
	FontColor #fff
	BorderColor #33b2e2
	BackgroundColor #33b2e2-#009fdb

	BorderThickness 2
	StereotypeFontColor #009fdb
}


skinparam rectangle {
		FontColor #5a5a5a
	BorderColor #c2c2c2
	BackgroundColor #fff-#fefefe
	BorderThickness 2
	StereotypeFontColor #009fdb
}


skinparam package {
	FontColor #009fdb
	BorderColor #33b2e2
	BackgroundColor transparent
	BorderThickness 2
}


skinparam folder {
	BackgroundColor #fff-#f5f5f5
  	BorderColor #ea7400
	FontColor #ea7400
	BorderThickness 2
}


skinparam frame {
	BackgroundColor #fff-#f5f5f5
  	BorderColor #0568ae
	FontColor #0568ae
	BorderThickness 2
}


skinparam state {
	
	FontColor #fff
	BorderColor #33b2e2
	BackgroundColor #33b2e2-#009fdb

	BorderColor #007faf
	StartColor #0568ae
	EndColor #0568ae
	AttributeFontColor #d2d2d2
	AttributeFontSize 11
}


skinparam queue {
	
	FontColor #fff
	BorderColor #33b2e2
	BackgroundColor #33b2e2-#009fdb

}


skinparam card {
	BackgroundColor #3786be-#0568ae
	BorderColor #0568ae
	FontColor #fff
}


skinparam file {
	BackgroundColor #f5f5f5-#f2f2f2
	BorderColor #0568ae
	FontColor #5a5a5a

}


skinparam stack {
	
	FontColor #fff
	BorderColor #33b2e2
	BackgroundColor #33b2e2-#009fdb

}
skinparam backgroundColor white
* Movie API
** 服務器健康檢查
*** 獲取伺服器響應訊息 - 完成
** 用戶API
*** 登入
*** 註冊
*** 獲取用戶個人資料 - 完成
*** 更新用戶個人資料 - 完成
**** 更新用戶名稱
**** 上傳以及更新用戶頭像 - 完成
**** 上傳以及更新用戶背景 - 完成
**** 更新用戶喜好項目(電影類別) - 完成
**** 更新用戶密碼 - 未實現
**** 獲取其他用戶之個人資料
**** 獲取用戶關注數
**** 獲取用戶粉絲數
**** 獲取用戶關注列表
**** 獲取用戶粉絲列表

** 文章API
*** 新增文章  - 完成
*** 更新文章內容 - 未實現
*** 刪除文章 - 未實現
*** 獲取所有文章資訊  - 完成
*** 獲取追蹤用戶文章資訊  - 完成
*** 獲取文章資訊  - 完成

** 文章點讚API
*** 獲取文章點讚數目 - 完成
*** 新增文章點讚 - 完成
*** 獲取用戶是否點讚文章 - 完成
*** 移除用戶點讚文章 - 完成

** 電影API
*** 獲取用戶是否點讚 - 完成
*** 獲取用戶是否收藏 - 完成
*** 獲取電影詳細資料 - 完成
*** 獲取單一電影類型 - 完成
*** 獲取相同類型的電影 - 完成

** 用戶電影類別API
*** 獲取用戶設定之電影類型 - 完成
*** 更新用戶設定之電影類型 - 完成

** 喜愛/點讚電影API
*** 獲取用戶點讚電影 - 完成
*** 獲取用戶是否點讚 - 完成
*** 新增用戶點讚電影 - 完成
*** 移除用戶點讚電影 - 完成

** 喜好列表API
*** 新增電影喜好片單 - 完成
*** 移除電影喜好片單 - 未實現
*** 獲取用戶所有喜好電影喜好片單 - 完成
*** 獲取單一用戶電影喜好片單 - 完成
*** 從用戶電影喜好片單獲取單一電影 - 完成
*** 新增電影至用戶電影喜好片單 - 完成
*** 從用戶電影喜好片單中移除單一電影 - 完成
*** 更新用戶電影喜好片單 - 未實現

** 留言API
*** 新增留言 - 完成
*** 新增留言回復 - 完成
*** 刪除留言 - 未實現
*** 獲取所有文章留言 - 完成
*** 獲取單一留言的所有回復內容 - 完成
*** 更新留言內容 - 未實現

** 留言點讚API
*** 獲取留言點讚數 - 完成
*** 新增留言點讚 - 完成
*** 移除用戶點讚留言 - 完成
*** 獲取用戶是否點讚留言 - 完成

** 朋友API
*** 新增朋友
*** 獲取朋友
*** 移除朋友

@endmindmap

PlantUML version 1.2022.6(Wed Jun 22 01:34:49 CST 2022)
(GPL source distribution)
Java Runtime: OpenJDK Runtime Environment
JVM: OpenJDK 64-Bit Server VM
Default Encoding: Cp1252
Language: en
Country: GB
--></g></svg>